<?xml version="1.0" encoding="UTF-8" standalone="no"?>
<!DOCTYPE svg PUBLIC "-//W3C//DTD SVG 1.1//EN" "http://www.w3.org/Graphics/SVG/1.1/DTD/svg11.dtd">
<svg xmlns="http://www.w3.org/2000/svg" version="1.1" viewBox="0.00 0.00 1280.00 217.00">
<rect fill="#ffffff" x="41.00" y="25.00" width="18.00" height="168.00" rx="0.61"/>
<rect fill="#ffffff" x="1221.00" y="25.00" width="18.00" height="168.00" rx="0.51"/>
<ellipse fill="#ffffff" cx="0.00" cy="0.00" transform="translate(870.94,42.80) rotate(-0.1)" rx="11.30" ry="10.86"/>
<path fill="#ffffff" d="
  M 1163.51 77.72
  L 1163.49 37.48
  Q 1163.49 37.02 1163.95 37.07
  L 1180.13 38.92
  Q 1180.75 38.99 1180.75 39.62
  L 1180.75 152.50
  A 0.50 0.50 0.0 0 1 1180.25 153.00
  L 1166.35 153.00
  A 1.01 1.00 -2.8 0 1 1165.35 152.10
  L 1164.43 143.48
  A 0.35 0.35 0.0 0 0 1163.80 143.31
  Q 1153.16 157.63 1135.12 154.26
  Q 1123.37 152.06 1117.40 141.59
  C 1106.38 122.23 1107.59 79.58 1133.57 71.10
  Q 1149.85 65.78 1163.15 77.88
  Q 1163.51 78.21 1163.51 77.72
  Z
  M 1143.07 141.46
  C 1151.97 143.15 1157.44 138.22 1162.39 131.57
  Q 1163.49 130.09 1163.49 127.96
  Q 1163.51 110.24 1163.50 92.48
  A 1.56 1.52 27.5 0 0 1163.20 91.57
  C 1153.12 77.93 1133.86 80.48 1130.50 98.50
  C 1128.32 110.19 1126.57 138.34 1143.07 141.46
  Z"
/>
<path fill="#ffffff" d="
  M 487.48 52.24
  A 0.49 0.49 0.0 0 0 486.99 51.75
  L 463.38 51.75
  Q 462.75 51.75 462.75 51.13
  L 462.75 39.62
  Q 462.75 39.00 463.38 39.00
  L 504.20 39.00
  Q 504.70 39.00 504.70 39.49
  Q 504.71 85.55 504.84 131.49
  C 504.87 144.28 522.02 141.12 529.25 138.64
  Q 529.81 138.44 530.01 139.00
  L 533.98 150.00
  A 0.65 0.64 69.3 0 1 533.62 150.81
  C 518.77 157.13 495.14 158.50 488.91 139.16
  Q 487.53 134.89 487.53 124.56
  Q 487.51 88.57 487.48 52.24
  Z"
/>
<path fill="#ffffff" d="
  M 579.23 51.75
  L 555.88 51.75
  Q 555.25 51.75 555.25 51.13
  L 555.25 39.50
  Q 555.25 39.00 555.75 39.00
  L 596.49 39.00
  Q 596.99 39.00 596.99 39.50
  Q 597.01 85.14 597.03 130.74
  C 597.03 144.34 613.69 141.27 621.73 138.64
  A 0.53 0.52 70.6 0 1 622.38 138.96
  L 626.43 150.02
  A 0.58 0.58 0.0 0 1 626.12 150.75
  C 607.17 159.06 579.86 156.70 579.81 129.79
  Q 579.75 91.05 579.74 52.26
  Q 579.74 51.75 579.23 51.75
  Z"
/>
<path fill="#ffffff" d="
  M 763.98 51.75
  L 740.63 51.75
  Q 740.00 51.75 740.00 51.13
  L 740.00 39.62
  Q 740.00 39.00 740.62 39.00
  L 781.22 39.00
  Q 781.78 39.00 781.78 39.56
  Q 781.68 107.24 781.76 128.99
  C 781.77 131.88 781.97 135.57 784.35 137.67
  C 790.38 143.02 799.25 141.03 806.52 138.64
  A 0.52 0.52 0.0 0 1 807.17 138.96
  L 811.18 149.98
  Q 811.35 150.45 810.90 150.65
  Q 798.59 156.31 786.01 154.75
  C 770.10 152.78 764.49 141.20 764.50 126.48
  Q 764.54 89.37 764.48 52.25
  Q 764.48 51.75 763.98 51.75
  Z"
/>
<path fill="#ffffff" d="
  M 115.76 81.66
  C 117.66 79.55 119.58 77.31 121.68 75.71
  C 133.85 66.44 152.90 67.26 161.60 80.92
  C 168.97 92.49 169.47 111.55 167.47 124.50
  C 164.50 143.78 151.67 158.05 131.07 154.43
  Q 123.59 153.12 117.14 146.47
  Q 116.50 145.80 116.50 146.73
  L 116.50 183.77
  Q 116.50 184.28 115.99 184.34
  L 99.87 186.19
  Q 99.25 186.26 99.25 185.63
  L 99.25 72.16
  A 0.41 0.40 -90.0 0 1 99.65 71.75
  L 113.83 71.75
  A 0.57 0.56 87.2 0 1 114.39 72.26
  L 115.30 81.50
  Q 115.35 82.10 115.76 81.66
  Z
  M 148.24 129.22
  C 151.00 118.71 153.79 86.34 137.76 83.20
  C 128.03 81.30 122.11 86.92 116.87 94.04
  Q 116.50 94.54 116.50 95.16
  L 116.50 131.71
  Q 116.50 132.15 116.75 132.52
  C 124.93 144.73 144.10 144.96 148.24 129.22
  Z"
/>
<path fill="#ffffff" d="
  M 237.02 102.45
  Q 237.07 99.46 236.56 94.94
  C 234.62 77.63 208.15 83.31 197.77 87.13
  Q 197.19 87.35 196.99 86.76
  L 193.15 75.59
  A 0.51 0.51 0.0 0 1 193.47 74.95
  C 211.62 68.94 244.57 62.97 252.34 87.44
  Q 253.76 91.92 253.75 101.22
  C 253.75 112.93 253.00 125.39 254.25 137.00
  Q 254.71 141.28 259.57 142.95
  Q 260.09 143.13 259.92 143.66
  L 256.29 154.53
  A 0.41 0.40 11.3 0 1 255.88 154.80
  Q 244.74 154.04 239.68 144.33
  Q 239.36 143.71 238.89 144.23
  C 222.39 162.38 183.19 158.08 186.95 126.45
  C 189.79 102.55 219.16 102.77 236.45 103.01
  Q 237.01 103.01 237.02 102.45
  Z
  M 204.86 131.75
  C 205.73 139.51 212.77 143.15 220.00 142.20
  Q 230.81 140.79 236.70 131.82
  A 1.85 1.85 0.0 0 0 237.00 130.81
  L 237.00 114.76
  Q 237.00 114.20 236.44 114.16
  C 224.38 113.16 202.77 113.03 204.86 131.75
  Z"
/>
<path fill="#ffffff" d="
  M 313.63 89.64
  C 321.37 72.68 335.39 65.40 353.63 71.80
  Q 353.99 71.92 353.95 72.30
  L 351.14 101.24
  Q 351.09 101.75 350.58 101.75
  L 339.25 101.75
  A 0.50 0.50 0.0 0 1 338.75 101.25
  L 338.75 86.24
  A 1.11 1.11 0.0 0 0 337.43 85.15
  C 325.44 87.45 319.30 95.75 315.36 106.72
  Q 314.12 110.17 314.05 114.86
  Q 313.87 127.55 314.05 140.27
  A 0.49 0.49 0.0 0 0 314.54 140.75
  L 329.87 140.75
  Q 330.50 140.75 330.50 141.37
  L 330.50 152.38
  Q 330.50 153.00 329.87 153.00
  L 285.32 153.00
  A 0.44 0.43 0.0 0 1 284.88 152.57
  L 285.00 141.25
  Q 285.00 140.75 285.50 140.75
  L 296.16 140.75
  Q 296.75 140.75 296.75 140.15
  L 296.75 84.50
  Q 296.75 84.00 296.25 84.00
  L 285.48 84.00
  Q 284.95 84.00 284.95 83.48
  L 284.98 72.26
  Q 284.98 71.75 285.49 71.75
  L 309.10 71.75
  Q 309.99 71.75 310.13 72.62
  L 313.00 89.56
  A 0.33 0.33 0.0 0 0 313.63 89.64
  Z"
/>
<path fill="#ffffff" d="
  M 424.43 144.25
  A 0.47 0.46 51.5 0 0 423.67 144.16
  C 410.22 159.54 376.33 160.40 371.92 134.75
  C 368.75 116.33 382.53 105.60 399.20 103.92
  Q 411.09 102.71 420.96 103.02
  A 0.55 0.54 -85.9 0 0 421.51 102.54
  Q 423.82 82.96 404.24 83.10
  Q 393.46 83.17 382.54 87.13
  A 0.55 0.55 0.0 0 1 381.83 86.79
  L 377.96 75.59
  Q 377.78 75.08 378.29 74.91
  C 394.07 69.61 423.94 63.84 434.72 81.79
  C 438.73 88.46 438.62 95.05 438.69 104.47
  Q 438.81 119.36 438.72 134.26
  Q 438.68 140.70 444.35 143.09
  Q 444.80 143.28 444.65 143.74
  L 441.17 154.43
  Q 441.02 154.89 440.54 154.85
  Q 429.52 153.94 424.43 144.25
  Z
  M 421.13 114.08
  C 409.10 113.46 387.59 113.13 389.70 131.04
  C 390.77 140.10 397.26 143.17 405.69 142.00
  Q 415.49 140.63 421.46 131.96
  Q 421.75 131.54 421.75 131.02
  L 421.75 114.73
  A 0.65 0.65 0.0 0 0 421.13 114.08
  Z"
/>
<path fill="#ffffff" d="
  M 668.12 118.45
  C 670.16 144.26 693.12 146.42 710.87 134.84
  A 0.77 0.76 -33.9 0 1 711.91 135.04
  L 718.66 144.53
  Q 718.99 145.00 718.53 145.33
  Q 705.04 155.03 688.26 154.97
  C 656.03 154.86 645.10 123.68 652.34 97.08
  C 657.83 76.90 676.93 65.18 697.43 70.91
  C 717.74 76.58 724.23 98.35 721.76 117.55
  Q 721.70 118.00 721.25 118.00
  L 668.53 118.00
  Q 668.08 118.00 668.12 118.45
  Z
  M 668.56 106.00
  L 705.44 106.00
  A 0.28 0.28 0.0 0 0 705.72 105.72
  L 705.72 104.82
  A 22.52 17.77 90.0 0 0 687.95 82.30
  L 686.05 82.30
  A 22.52 17.77 90.0 0 0 668.28 104.82
  L 668.28 105.72
  A 0.28 0.28 0.0 0 0 668.56 106.00
  Z"
/>
<path fill="#ffffff" d="
  M 1036.12 76.06
  C 1048.94 66.56 1070.23 67.20 1081.33 79.44
  C 1090.81 89.90 1092.83 103.95 1091.48 117.55
  Q 1091.44 118.00 1090.98 118.00
  L 1038.46 118.00
  Q 1037.79 118.00 1037.82 118.67
  C 1039.17 143.89 1063.34 146.61 1080.41 134.81
  A 0.78 0.77 -34.8 0 1 1081.48 135.00
  L 1088.24 144.50
  Q 1088.56 144.95 1088.12 145.28
  Q 1080.21 151.20 1070.72 153.46
  C 1046.09 159.35 1026.20 148.60 1020.81 123.66
  C 1017.19 106.97 1021.88 86.62 1036.12 76.06
  Z
  M 1038.13 106.03
  L 1075.07 105.97
  A 0.25 0.25 0.0 0 0 1075.32 105.72
  L 1075.32 104.80
  A 22.53 17.76 89.9 0 0 1057.52 82.30
  L 1055.60 82.30
  A 22.53 17.76 89.9 0 0 1037.88 104.86
  L 1037.88 105.78
  A 0.25 0.25 0.0 0 0 1038.13 106.03
  Z"
/>
<path fill="#ffffff" d="
  M 883.44 140.25
  L 904.54 140.25
  A 0.44 0.44 0.0 0 1 904.98 140.69
  L 905.04 152.56
  A 0.44 0.44 0.0 0 1 904.60 153.00
  L 841.69 153.00
  A 0.44 0.44 0.0 0 1 841.25 152.56
  L 841.25 140.69
  A 0.44 0.44 0.0 0 1 841.69 140.25
  L 865.31 140.25
  A 0.44 0.44 0.0 0 0 865.75 139.81
  L 865.75 84.69
  A 0.44 0.44 0.0 0 0 865.31 84.25
  L 842.74 84.25
  A 0.44 0.44 0.0 0 1 842.30 83.82
  L 842.13 72.20
  A 0.44 0.44 0.0 0 1 842.57 71.75
  L 882.56 71.75
  A 0.44 0.44 0.0 0 1 883.00 72.19
  L 883.00 139.81
  A 0.44 0.44 0.0 0 0 883.44 140.25
  Z"
/>
<path fill="#ffffff" d="
  M 995.37 139.65
  L 993.62 152.70
  A 0.35 0.35 0.0 0 1 993.27 153.00
  L 931.60 153.00
  A 0.35 0.35 0.0 0 1 931.25 152.65
  L 931.25 140.34
  A 0.35 0.35 0.0 0 1 931.33 140.12
  L 974.05 86.07
  A 0.35 0.35 0.0 0 0 973.78 85.50
  L 935.10 85.50
  A 0.35 0.35 0.0 0 1 934.75 85.15
  L 934.75 72.10
  A 0.35 0.35 0.0 0 1 935.10 71.75
  L 994.63 71.75
  A 0.35 0.35 0.0 0 1 994.98 72.10
  L 995.01 83.97
  A 0.35 0.35 0.0 0 1 994.94 84.19
  L 952.37 138.68
  A 0.35 0.35 0.0 0 0 952.65 139.25
  L 995.02 139.25
  A 0.35 0.35 0.0 0 1 995.37 139.65
  Z"
/>
</svg>
