<svg width="512" height="512" viewBox="0 0 512 512" fill="none" xmlns="http://www.w3.org/2000/svg">
<rect width="512" height="512" rx="120" fill="#111827"/>
<path d="M112.286 83.4978H77.3089C76.7286 83.4978 76.2583 83.9682 76.2583 84.5484V428.512C76.2583 429.092 76.7286 429.562 77.3089 429.562H112.286C112.866 429.562 113.337 429.092 113.337 428.512V84.5484C113.337 83.9682 112.866 83.4978 112.286 83.4978Z" fill="#FBFCFC"/>
<path d="M437.278 83.4771H403.248C402.406 83.4771 401.724 84.1595 401.724 85.0014V428.017C401.724 428.859 402.406 429.542 403.248 429.542H437.278C438.119 429.542 438.802 428.859 438.802 428.017V85.0014C438.802 84.1595 438.119 83.4771 437.278 83.4771Z" fill="#FBFCFC"/>
<path d="M229.309 199.882C229.324 200.012 229.378 200.135 229.462 200.234C229.547 200.334 229.66 200.405 229.786 200.441C229.912 200.476 230.045 200.473 230.169 200.432C230.293 200.392 230.403 200.315 230.483 200.212C240.81 186.74 253.774 178.741 269.374 176.214C303.569 170.673 325.651 189.521 333.767 221.347C343.263 258.569 342.563 320.305 304.166 343.52C282.063 356.889 251.494 352.954 233.038 333.756C232.2 332.877 231.781 333.042 231.781 334.25V410.529C231.781 411.229 231.431 411.62 230.73 411.703L197.525 415.514C196.673 415.623 196.248 415.246 196.248 414.381V180.828C196.248 180.555 196.356 180.293 196.549 180.1C196.742 179.907 197.004 179.798 197.278 179.798H225.416C226.679 179.798 227.373 180.43 227.496 181.693L229.309 199.882ZM299.943 284.895C303.136 264.852 304.702 210.985 277.593 204.002C256.706 198.626 243.811 210.326 232.523 225.734C232.028 226.407 231.781 227.162 231.781 228V303.393C231.781 304.079 231.973 304.704 232.358 305.267C239.959 316.494 251 323.209 264.822 323.209C288.222 323.209 296.565 306.112 299.943 284.895Z" fill="#FBFCFC"/>
</svg>
